<?xml version="1.0" standalone="no"?>
<!DOCTYPE svg PUBLIC "-//W3C//DTD SVG 20010904//EN"
 "http://www.w3.org/TR/2001/REC-SVG-20010904/DTD/svg10.dtd">
<svg version="1.0" xmlns="http://www.w3.org/2000/svg"
 width="473.000000pt" height="478.000000pt" viewBox="0 0 473.000000 478.000000"
 preserveAspectRatio="xMidYMid meet">
<metadata>
Created by potrace 1.16, written by Peter Selinger 2001-2019
</metadata>
<g transform="translate(0.000000,478.000000) scale(0.100000,-0.100000)"
fill="#000000" stroke="none">
<path d="M1379 3292 c-35 -32 -172 -157 -304 -276 -132 -120 -241 -222 -243
-227 -2 -5 47 -9 117 -9 l120 0 4 -462 c2 -354 6 -472 17 -500 7 -21 17 -35
21 -32 5 3 6 -1 4 -8 -9 -23 58 -121 110 -160 28 -21 75 -48 105 -59 68 -26
197 -36 270 -20 67 14 171 61 164 73 -3 4 -2 8 3 7 4 -1 13 -1 19 0 15 1 103
87 137 132 l26 37 -46 -14 c-56 -17 -205 -17 -252 0 -43 15 -137 94 -144 121
-3 11 -14 40 -24 65 -17 42 -18 92 -21 690 -1 355 -2 657 -2 673 0 15 -4 27
-9 27 -5 0 -37 -26 -72 -58z"/>
<path d="M1570 2865 l0 -86 215 1 c118 1 219 -1 224 -4 4 -3 35 -66 67 -140
32 -74 63 -132 68 -129 5 3 6 1 2 -5 -9 -15 254 -603 267 -595 6 3 7 1 3 -6
-10 -15 34 -122 47 -114 6 3 7 1 3 -5 -9 -15 93 -242 109 -242 7 0 27 33 45
73 44 98 70 156 120 262 23 50 42 97 42 105 1 8 -11 42 -26 75 -16 33 -36 80
-46 105 -45 110 -88 199 -93 194 -3 -3 -4 1 -4 8 1 8 -54 143 -123 301 l-125
287 -397 0 -398 0 0 -85z"/>
<path d="M2742 2922 c7 -16 28 -65 47 -110 19 -44 39 -78 44 -75 6 3 7 1 3 -5
-9 -14 14 -63 27 -55 6 4 7 1 2 -6 -7 -13 150 -380 168 -392 5 -3 9 -10 8 -15
-1 -24 12 -53 22 -47 5 3 7 1 4 -5 -4 -5 15 -59 42 -119 26 -59 52 -118 55
-131 4 -12 11 -20 16 -17 5 3 8 -3 8 -12 -2 -22 42 -123 52 -123 4 0 7 -6 6
-12 -2 -23 106 -258 119 -258 7 0 38 57 70 128 32 70 69 152 83 182 14 30 25
61 25 68 0 6 3 12 7 12 4 0 12 12 19 26 10 23 7 35 -19 90 -16 35 -30 68 -30
73 0 5 -7 14 -15 21 -8 7 -13 16 -10 20 7 11 -16 60 -27 60 -4 0 -8 11 -8 24
0 14 -6 31 -12 38 -7 7 -14 20 -16 28 -2 8 -65 156 -140 328 l-136 312 -213 0
-213 0 12 -28z"/>
<path d="M3615 2935 c34 -93 50 -130 57 -133 5 -2 6 -8 2 -13 -3 -5 1 -33 10
-62 22 -78 46 -214 46 -263 0 -24 4 -44 8 -44 5 0 17 17 27 38 28 55 29 55 15
47 -9 -6 -11 -4 -6 4 5 7 11 10 14 6 11 -11 63 107 57 129 -5 15 -4 17 3 7 12
-17 27 3 16 22 -4 6 -3 9 1 4 11 -10 117 201 109 215 -4 6 -3 8 3 5 8 -5 33
31 33 48 0 3 -85 5 -190 5 -145 0 -190 -3 -190 -12 0 -9 -4 -8 -11 2 -9 12 -9
11 -4 -5z"/>
</g>
</svg>
